Coordinates
version=1
nRows=13
nColumns=40
inDegrees=yes

Units are S.I. units (second, meters, Newtons, ...)
Angles are in degrees.

endheader
time	pelvis_tilt	pelvis_list	pelvis_rotation	pelvis_tx	pelvis_ty	pelvis_tz	hip_flexion_r	hip_adduction_r	hip_rotation_r	knee_angle_r	knee_angle_r_beta	ankle_angle_r	subtalar_angle_r	mtp_angle_r	hip_flexion_l	hip_adduction_l	hip_rotation_l	knee_angle_l	knee_angle_l_beta	ankle_angle_l	subtalar_angle_l	mtp_angle_l	lumbar_extension	lumbar_bending	lumbar_rotation	arm_flex_r	arm_add_r	arm_rot_r	elbow_flex_r	pro_sup_r	wrist_flex_r	wrist_dev_r	arm_flex_l	arm_add_l	arm_rot_l	elbow_flex_l	pro_sup_l	wrist_flex_l	wrist_dev_l
     10.91000000	     -3.54141676	     -4.11696011	      0.12901725	      1.01192579	      0.93110328	      0.42490262	     29.23995492	     -8.03138062	     -8.10260173	     70.05397997	     70.05397997	     -0.55245190	    -17.98222940	      4.32492817	     16.66375625	     -4.69492273	     -6.31744312	     23.36211590	     23.36211590	     12.20313364	    -12.24699727	      0.30271067	    -11.22319424	      4.41159957	      2.90496154	     17.02890058	    -12.22319605	     -0.09431932	     79.44077111	     44.54360751	      0.00000000	      0.00000000	      2.98260064	    -10.55908571	      1.59574084	     37.98531099	     44.74115308	      0.00000000	      0.00000000
     10.92157143	     -3.46324517	     -4.11635040	     -0.17765725	      1.01105052	      0.93190873	      0.42450062	     30.51017177	     -7.90917499	     -7.85511474	     69.01134312	     69.01134312	     -0.45170753	    -17.64502508	      4.01171145	     15.61259786	     -4.70861402	     -6.78495173	     22.69782980	     22.69782980	     12.53823748	    -11.82927560	      0.07791666	    -11.40481715	      4.49265172	      3.21289455	     14.51946051	    -12.75393424	      0.27344920	     77.01980774	     44.60952507	      0.00000000	      0.00000000	      5.10260589	    -10.91167471	      1.39236512	     38.95665609	     44.81402129	      0.00000000	      0.00000000
     10.93314286	     -3.33753553	     -4.14334840	     -0.49312103	      1.01019779	      0.93270719	      0.42422248	     31.60154584	     -7.70886859	     -7.60945854	     67.76148369	     67.76148369	     -0.46911914	    -17.29365208	      3.56781510	     14.51231453	     -4.75627549	     -7.28406678	     22.02814726	     22.02814726	     12.82628104	    -11.37664818	     -0.27728195	    -11.66100616	      4.57116311	      3.53729413	     12.36549769	    -13.17346510	      0.54442034	     73.90288214	     44.70475107	      0.00000000	      0.00000000	      7.25185208	    -11.34388471	      1.26703190	     40.00505672	     44.88264743	      0.00000000	      0.00000000
     10.94471429	     -3.23734008	     -4.18554598	     -0.75915841	      1.00939141	      0.93335727	      0.42395600	     32.52928397	     -7.49626427	     -7.44897562	     66.20821979	     66.20821979	     -0.80966227	    -17.02928213	      2.20923330	     13.45358089	     -4.81570212	     -7.79072313	     21.33513269	     21.33513269	     12.84301048	    -10.94974272	     -1.31620316	    -11.78315272	      4.66799184	      3.07646723	     11.41144566	    -12.75546213	      0.70083152	     68.46066700	     44.90448567	      0.00000000	      0.00000000	      8.90575939	    -12.10312234	      1.48432718	     40.93521294	     44.96588256	      0.00000000	      0.00000000
     10.95628571	     -3.12725404	     -4.21528266	     -1.03273918	      1.00863173	      0.93396865	      0.42375748	     33.34492775	     -7.25349909	     -7.26094145	     64.44186932	     64.44186932	     -0.96888549	    -16.59106604	      1.49032379	     12.34587264	     -4.81587218	     -8.18264504	     20.55917085	     20.55917085	     12.91426782	    -10.67113050	     -1.95449873	    -11.99128328	      4.75376161	      3.00350483	      9.94356279	    -12.89097694	      1.06840552	     64.34103398	     45.04464812	      0.00000000	      0.00000000	     10.57895378	    -12.73546561	      1.43324441	     42.39946544	     45.08123225	      0.00000000	      0.00000000
     10.96785714	     -3.02048727	     -4.24547951	     -1.29875725	      1.00795811	      0.93452883	      0.42365016	     34.01090453	     -6.98226968	     -7.09714396	     62.39057955	     62.39057955	     -0.88849917	    -15.92641822	      1.44410517	     11.22579535	     -4.79766317	     -8.53102152	     19.76566456	     19.76566456	     13.18598124	    -10.33541947	     -2.09056924	    -12.26260483	      4.87620127	      3.32875140	      7.81361704	    -13.42885239	      1.32054006	     61.85878162	     45.11476478	      0.00000000	      0.00000000	     12.47968827	    -13.07319911	      1.22299934	     43.68917260	     45.15111721	      0.00000000	      0.00000000
     10.97942857	     -2.91486421	     -4.24342921	     -1.58573686	      1.00730416	      0.93496282	      0.42366145	     34.54445174	     -6.71681940	     -6.92185054	     60.04618704	     60.04618704	     -0.77413342	    -15.12739682	      1.21881600	     10.10638017	     -4.75962102	     -8.98274421	     18.96259753	     18.96259753	     13.39230557	     -9.91688343	     -2.43035743	    -12.52467111	      4.94672405	      3.64200376	      6.02597116	    -13.80808972	      1.36655038	     58.42161219	     45.22816700	      0.00000000	      0.00000000	     14.32888152	    -13.48728553	      1.09531056	     45.09388989	     45.21651460	      0.00000000	      0.00000000
     10.99100000	     -2.93073714	     -4.21858860	     -1.81323784	      1.00673426	      0.93509318	      0.42380965	     34.99998582	     -6.46287166	     -6.84109881	     57.28989797	     57.28989797	     -0.97426189	    -14.46235988	      0.01837784	      9.13053523	     -4.70075584	     -9.39810291	     18.14776678	     18.14776678	     13.25911245	     -9.60241837	     -3.65951037	    -12.51981388	      4.97069441	      2.92561039	      5.87883198	    -13.12778593	      0.61710102	     51.72055548	     45.50041547	      0.00000000	      0.00000000	     15.28141699	    -14.58453144	      1.25604967	     47.01927750	     45.30300009	      0.00000000	      0.00000000
     11.00257143	     -2.88262392	     -4.21605224	     -2.08092827	      1.00625595	      0.93523695	      0.42395198	     35.22773819	     -6.17349668	     -6.78547320	     54.24443910	     54.24443910	     -0.72375033	    -13.32641893	     -0.17081046	      8.04120461	     -4.62129157	     -9.74843399	     17.29081672	     17.29081672	     13.48357218	     -9.29050294	     -3.86681277	    -12.71069604	      5.07017927	      3.18223548	      3.80335584	    -13.70924953	      0.59163726	     49.37433049	     45.57496071	      0.00000000	      0.00000000	     16.95200468	    -14.94383772	      0.94964146	     48.66628313	     45.38340109	      0.00000000	      0.00000000
     11.01414286	     -2.86821708	     -4.15044247	     -2.33355919	      1.00590567	      0.93519078	      0.42420275	     35.29801264	     -5.94270870	     -6.81065697	     50.85641912	     50.85641912	     -0.47072787	    -12.07653193	     -0.57592228	      6.94576858	     -4.48736903	    -10.18489821	     16.35958811	     16.35958811	     13.60682171	     -8.81221806	     -4.34436538	    -12.86939547	      5.09508703	      3.42845105	      2.01585856	    -14.07050740	      0.22986226	     46.13149518	     45.69982874	      0.00000000	      0.00000000	     18.41691377	    -15.37095701	      0.72611772	     50.64555050	     45.46108397	      0.00000000	      0.00000000
     11.02571429	     -2.98626873	     -4.08044665	     -2.54307382	      1.00563707	      0.93476526	      0.42455464	     35.25010112	     -5.68348558	     -6.93687194	     47.02349580	     47.02349580	     -0.77239452	    -11.11948629	     -2.42553590	      5.97519369	     -4.33519383	    -10.51839175	     15.33893645	     15.33893645	     13.20808552	     -8.64549080	     -6.04447519	    -12.77076502	      5.11187646	      2.51068324	      2.12788703	    -13.31351668	     -2.15423521	     39.42153427	     46.05804272	      0.00000000	      0.00000000	     18.57509761	    -16.75493448	      0.53419520	     54.14157902	     45.62130024	      0.00000000	      0.00000000
     11.03728571	     -3.03784446	     -3.96458109	     -2.78116653	      1.00562331	      0.93426090	      0.42494952	     34.96073599	     -5.45684155	     -7.15164985	     43.01444029	     43.01444029	     -0.60482220	     -9.71246058	     -3.06930870	      4.89128827	     -4.11417264	    -10.88191841	     14.30673189	     14.30673189	     13.13085871	     -8.32764730	     -6.96030016	    -12.79782095	      5.10050065	      2.41514258	      0.76096950	    -13.34169639	     -4.15671202	     35.91984584	     46.26983951	      0.00000000	      0.00000000	     19.47924894	    -17.37377793	     -0.07797215	     56.82795579	     45.83078238	      0.00000000	      0.00000000
     11.04885714	     -3.06949295	     -3.86753705	     -3.00824193	      1.00579530	      0.93359743	      0.42542315	     34.46283016	     -5.18114978	     -7.48266191	     38.86399642	     38.86399642	     -0.14580126	     -8.09021372	     -2.67497418	      3.85467136	     -3.92975840	    -11.24390087	     13.46927449	     13.46927449	     13.41701613	     -7.83549407	     -7.19772271	    -12.80304870	      5.12242058	      2.56382280	     -1.36373090	    -13.92046449	     -4.51104660	     34.32049751	     46.33542641	      0.00000000	      0.00000000	     20.85454718	    -17.73116448	     -0.40760627	     58.46487354	     45.90522905	      0.00000000	      0.00000000
